<mxfile host="app.diagrams.net" agent="Mozilla/5.0 (Windows NT 10.0; Win64; x64) AppleWebKit/537.36 (KHTML, like Gecko) Chrome/139.0.0.0 Safari/537.36" version="28.1.0">
  <diagram id="j07xIfvmmYSpDvQwc_vU" name="PÃ¡gina-1">
    <mxGraphModel dx="3473" dy="1917" grid="1" gridSize="10" guides="1" tooltips="1" connect="1" arrows="1" fold="1" page="1" pageScale="1" pageWidth="827" pageHeight="1169" background="#ffffff" math="0" shadow="0">
      <root>
        <mxCell id="0" />
        <mxCell id="1" parent="0" />
        <mxCell id="MEUtMW8uSptJMOQuRIBu-1" value="Evento" style="swimlane;fontStyle=1;align=center;verticalAlign=top;childLayout=stackLayout;horizontal=1;startSize=30.11764705882353;horizontalStack=0;resizeParent=1;resizeParentMax=0;resizeLast=0;collapsible=0;marginBottom=0;labelBackgroundColor=none;fillColor=#A8DADC;strokeColor=#457B9D;fontColor=#1D3557;rounded=1;" parent="1" vertex="1">
          <mxGeometry x="58" y="250" width="223" height="255.11764705882354" as="geometry" />
        </mxCell>
        <mxCell id="MEUtMW8uSptJMOQuRIBu-2" value="+String codigo" style="text;strokeColor=none;fillColor=none;align=left;verticalAlign=top;spacingLeft=4;spacingRight=4;overflow=hidden;rotatable=0;points=[[0,0.5],[1,0.5]];portConstraint=eastwest;labelBackgroundColor=none;fontColor=#1D3557;rounded=1;" parent="MEUtMW8uSptJMOQuRIBu-1" vertex="1">
          <mxGeometry y="30.11764705882353" width="223" height="30" as="geometry" />
        </mxCell>
        <mxCell id="MEUtMW8uSptJMOQuRIBu-3" value="+LocalDate fechaEvento" style="text;strokeColor=none;fillColor=none;align=left;verticalAlign=top;spacingLeft=4;spacingRight=4;overflow=hidden;rotatable=0;points=[[0,0.5],[1,0.5]];portConstraint=eastwest;labelBackgroundColor=none;fontColor=#1D3557;rounded=1;" parent="MEUtMW8uSptJMOQuRIBu-1" vertex="1">
          <mxGeometry y="60.11764705882353" width="223" height="30" as="geometry" />
        </mxCell>
        <mxCell id="MEUtMW8uSptJMOQuRIBu-4" value="+String tipo" style="text;strokeColor=none;fillColor=none;align=left;verticalAlign=top;spacingLeft=4;spacingRight=4;overflow=hidden;rotatable=0;points=[[0,0.5],[1,0.5]];portConstraint=eastwest;labelBackgroundColor=none;fontColor=#1D3557;rounded=1;" parent="MEUtMW8uSptJMOQuRIBu-1" vertex="1">
          <mxGeometry y="90.11764705882354" width="223" height="30" as="geometry" />
        </mxCell>
        <mxCell id="MEUtMW8uSptJMOQuRIBu-5" value="+String titulo" style="text;strokeColor=none;fillColor=none;align=left;verticalAlign=top;spacingLeft=4;spacingRight=4;overflow=hidden;rotatable=0;points=[[0,0.5],[1,0.5]];portConstraint=eastwest;labelBackgroundColor=none;fontColor=#1D3557;rounded=1;" parent="MEUtMW8uSptJMOQuRIBu-1" vertex="1">
          <mxGeometry y="120.11764705882354" width="223" height="30" as="geometry" />
        </mxCell>
        <mxCell id="MEUtMW8uSptJMOQuRIBu-6" value="+String lugar" style="text;strokeColor=none;fillColor=none;align=left;verticalAlign=top;spacingLeft=4;spacingRight=4;overflow=hidden;rotatable=0;points=[[0,0.5],[1,0.5]];portConstraint=eastwest;labelBackgroundColor=none;fontColor=#1D3557;rounded=1;" parent="MEUtMW8uSptJMOQuRIBu-1" vertex="1">
          <mxGeometry y="150.11764705882354" width="223" height="30" as="geometry" />
        </mxCell>
        <mxCell id="MEUtMW8uSptJMOQuRIBu-7" value="+int cupo" style="text;strokeColor=none;fillColor=none;align=left;verticalAlign=top;spacingLeft=4;spacingRight=4;overflow=hidden;rotatable=0;points=[[0,0.5],[1,0.5]];portConstraint=eastwest;labelBackgroundColor=none;fontColor=#1D3557;rounded=1;" parent="MEUtMW8uSptJMOQuRIBu-1" vertex="1">
          <mxGeometry y="180.11764705882354" width="223" height="30" as="geometry" />
        </mxCell>
        <mxCell id="MEUtMW8uSptJMOQuRIBu-8" value="+double tarifa" style="text;strokeColor=none;fillColor=none;align=left;verticalAlign=top;spacingLeft=4;spacingRight=4;overflow=hidden;rotatable=0;points=[[0,0.5],[1,0.5]];portConstraint=eastwest;labelBackgroundColor=none;fontColor=#1D3557;rounded=1;" parent="MEUtMW8uSptJMOQuRIBu-1" vertex="1">
          <mxGeometry y="210.11764705882354" width="223" height="30" as="geometry" />
        </mxCell>
        <mxCell id="MEUtMW8uSptJMOQuRIBu-9" style="line;strokeWidth=1;fillColor=none;align=left;verticalAlign=middle;spacingTop=-1;spacingLeft=3;spacingRight=3;rotatable=0;labelPosition=right;points=[];portConstraint=eastwest;strokeColor=#457B9D;labelBackgroundColor=none;fontColor=#1D3557;rounded=1;" parent="MEUtMW8uSptJMOQuRIBu-1" vertex="1">
          <mxGeometry y="240.11764705882354" width="223" height="15" as="geometry" />
        </mxCell>
        <mxCell id="MEUtMW8uSptJMOQuRIBu-10" value="EventoDAO" style="swimlane;fontStyle=1;align=center;verticalAlign=top;childLayout=stackLayout;horizontal=1;startSize=32.92307692307692;horizontalStack=0;resizeParent=1;resizeParentMax=0;resizeLast=0;collapsible=0;marginBottom=0;labelBackgroundColor=none;fillColor=#A8DADC;strokeColor=#457B9D;fontColor=#1D3557;rounded=1;" parent="1" vertex="1">
          <mxGeometry x="20" y="624" width="300" height="205.9230769230769" as="geometry" />
        </mxCell>
        <mxCell id="MEUtMW8uSptJMOQuRIBu-11" style="line;strokeWidth=1;fillColor=none;align=left;verticalAlign=middle;spacingTop=-1;spacingLeft=3;spacingRight=3;rotatable=0;labelPosition=right;points=[];portConstraint=eastwest;strokeColor=#457B9D;labelBackgroundColor=none;fontColor=#1D3557;rounded=1;" parent="MEUtMW8uSptJMOQuRIBu-10" vertex="1">
          <mxGeometry y="32.92307692307692" width="300" height="8" as="geometry" />
        </mxCell>
        <mxCell id="MEUtMW8uSptJMOQuRIBu-12" value="+boolean crear(Evento)" style="text;strokeColor=none;fillColor=none;align=left;verticalAlign=top;spacingLeft=4;spacingRight=4;overflow=hidden;rotatable=0;points=[[0,0.5],[1,0.5]];portConstraint=eastwest;labelBackgroundColor=none;fontColor=#1D3557;rounded=1;" parent="MEUtMW8uSptJMOQuRIBu-10" vertex="1">
          <mxGeometry y="40.92307692307692" width="300" height="33" as="geometry" />
        </mxCell>
        <mxCell id="MEUtMW8uSptJMOQuRIBu-13" value="+Evento obtener(String codigo)" style="text;strokeColor=none;fillColor=none;align=left;verticalAlign=top;spacingLeft=4;spacingRight=4;overflow=hidden;rotatable=0;points=[[0,0.5],[1,0.5]];portConstraint=eastwest;labelBackgroundColor=none;fontColor=#1D3557;rounded=1;" parent="MEUtMW8uSptJMOQuRIBu-10" vertex="1">
          <mxGeometry y="73.92307692307692" width="300" height="33" as="geometry" />
        </mxCell>
        <mxCell id="MEUtMW8uSptJMOQuRIBu-14" value="+boolean actualizar(Evento)" style="text;strokeColor=none;fillColor=none;align=left;verticalAlign=top;spacingLeft=4;spacingRight=4;overflow=hidden;rotatable=0;points=[[0,0.5],[1,0.5]];portConstraint=eastwest;labelBackgroundColor=none;fontColor=#1D3557;rounded=1;" parent="MEUtMW8uSptJMOQuRIBu-10" vertex="1">
          <mxGeometry y="106.92307692307692" width="300" height="33" as="geometry" />
        </mxCell>
        <mxCell id="MEUtMW8uSptJMOQuRIBu-15" value="+boolean eliminar(String codigo)" style="text;strokeColor=none;fillColor=none;align=left;verticalAlign=top;spacingLeft=4;spacingRight=4;overflow=hidden;rotatable=0;points=[[0,0.5],[1,0.5]];portConstraint=eastwest;labelBackgroundColor=none;fontColor=#1D3557;rounded=1;" parent="MEUtMW8uSptJMOQuRIBu-10" vertex="1">
          <mxGeometry y="139.9230769230769" width="300" height="33" as="geometry" />
        </mxCell>
        <mxCell id="MEUtMW8uSptJMOQuRIBu-16" value="+List&lt;Evento&gt; listar()" style="text;strokeColor=none;fillColor=none;align=left;verticalAlign=top;spacingLeft=4;spacingRight=4;overflow=hidden;rotatable=0;points=[[0,0.5],[1,0.5]];portConstraint=eastwest;labelBackgroundColor=none;fontColor=#1D3557;rounded=1;" parent="MEUtMW8uSptJMOQuRIBu-10" vertex="1">
          <mxGeometry y="172.9230769230769" width="300" height="33" as="geometry" />
        </mxCell>
        <mxCell id="MEUtMW8uSptJMOQuRIBu-17" value="Participante" style="swimlane;fontStyle=1;align=center;verticalAlign=top;childLayout=stackLayout;horizontal=1;startSize=33.45454545454545;horizontalStack=0;resizeParent=1;resizeParentMax=0;resizeLast=0;collapsible=0;marginBottom=0;labelBackgroundColor=none;fillColor=#A8DADC;strokeColor=#457B9D;fontColor=#1D3557;rounded=1;" parent="1" vertex="1">
          <mxGeometry x="412" y="286" width="247" height="182.45454545454544" as="geometry" />
        </mxCell>
        <mxCell id="MEUtMW8uSptJMOQuRIBu-18" value="+String correo" style="text;strokeColor=none;fillColor=none;align=left;verticalAlign=top;spacingLeft=4;spacingRight=4;overflow=hidden;rotatable=0;points=[[0,0.5],[1,0.5]];portConstraint=eastwest;labelBackgroundColor=none;fontColor=#1D3557;rounded=1;" parent="MEUtMW8uSptJMOQuRIBu-17" vertex="1">
          <mxGeometry y="33.45454545454545" width="247" height="33" as="geometry" />
        </mxCell>
        <mxCell id="MEUtMW8uSptJMOQuRIBu-19" value="+String nombreCompleto" style="text;strokeColor=none;fillColor=none;align=left;verticalAlign=top;spacingLeft=4;spacingRight=4;overflow=hidden;rotatable=0;points=[[0,0.5],[1,0.5]];portConstraint=eastwest;labelBackgroundColor=none;fontColor=#1D3557;rounded=1;" parent="MEUtMW8uSptJMOQuRIBu-17" vertex="1">
          <mxGeometry y="66.45454545454545" width="247" height="33" as="geometry" />
        </mxCell>
        <mxCell id="MEUtMW8uSptJMOQuRIBu-20" value="+String tipo" style="text;strokeColor=none;fillColor=none;align=left;verticalAlign=top;spacingLeft=4;spacingRight=4;overflow=hidden;rotatable=0;points=[[0,0.5],[1,0.5]];portConstraint=eastwest;labelBackgroundColor=none;fontColor=#1D3557;rounded=1;" parent="MEUtMW8uSptJMOQuRIBu-17" vertex="1">
          <mxGeometry y="99.45454545454545" width="247" height="33" as="geometry" />
        </mxCell>
        <mxCell id="MEUtMW8uSptJMOQuRIBu-21" value="+String institucion" style="text;strokeColor=none;fillColor=none;align=left;verticalAlign=top;spacingLeft=4;spacingRight=4;overflow=hidden;rotatable=0;points=[[0,0.5],[1,0.5]];portConstraint=eastwest;labelBackgroundColor=none;fontColor=#1D3557;rounded=1;" parent="MEUtMW8uSptJMOQuRIBu-17" vertex="1">
          <mxGeometry y="132.45454545454544" width="247" height="33" as="geometry" />
        </mxCell>
        <mxCell id="MEUtMW8uSptJMOQuRIBu-22" style="line;strokeWidth=1;fillColor=none;align=left;verticalAlign=middle;spacingTop=-1;spacingLeft=3;spacingRight=3;rotatable=0;labelPosition=right;points=[];portConstraint=eastwest;strokeColor=#457B9D;labelBackgroundColor=none;fontColor=#1D3557;rounded=1;" parent="MEUtMW8uSptJMOQuRIBu-17" vertex="1">
          <mxGeometry y="165.45454545454544" width="247" height="17" as="geometry" />
        </mxCell>
        <mxCell id="MEUtMW8uSptJMOQuRIBu-23" value="ParticipanteDAO" style="swimlane;fontStyle=1;align=center;verticalAlign=top;childLayout=stackLayout;horizontal=1;startSize=31.733333333333334;horizontalStack=0;resizeParent=1;resizeParentMax=0;resizeLast=0;collapsible=0;marginBottom=0;labelBackgroundColor=none;fillColor=#A8DADC;strokeColor=#457B9D;fontColor=#1D3557;rounded=1;" parent="1" vertex="1">
          <mxGeometry x="447" y="624" width="496" height="231.73333333333335" as="geometry" />
        </mxCell>
        <mxCell id="MEUtMW8uSptJMOQuRIBu-24" style="line;strokeWidth=1;fillColor=none;align=left;verticalAlign=middle;spacingTop=-1;spacingLeft=3;spacingRight=3;rotatable=0;labelPosition=right;points=[];portConstraint=eastwest;strokeColor=#457B9D;labelBackgroundColor=none;fontColor=#1D3557;rounded=1;" parent="MEUtMW8uSptJMOQuRIBu-23" vertex="1">
          <mxGeometry y="31.733333333333334" width="496" height="8" as="geometry" />
        </mxCell>
        <mxCell id="MEUtMW8uSptJMOQuRIBu-25" value="+boolean crear(Participante)" style="text;strokeColor=none;fillColor=none;align=left;verticalAlign=top;spacingLeft=4;spacingRight=4;overflow=hidden;rotatable=0;points=[[0,0.5],[1,0.5]];portConstraint=eastwest;labelBackgroundColor=none;fontColor=#1D3557;rounded=1;" parent="MEUtMW8uSptJMOQuRIBu-23" vertex="1">
          <mxGeometry y="39.733333333333334" width="496" height="32" as="geometry" />
        </mxCell>
        <mxCell id="MEUtMW8uSptJMOQuRIBu-26" value="+Participante obtener(String correo)" style="text;strokeColor=none;fillColor=none;align=left;verticalAlign=top;spacingLeft=4;spacingRight=4;overflow=hidden;rotatable=0;points=[[0,0.5],[1,0.5]];portConstraint=eastwest;labelBackgroundColor=none;fontColor=#1D3557;rounded=1;" parent="MEUtMW8uSptJMOQuRIBu-23" vertex="1">
          <mxGeometry y="71.73333333333333" width="496" height="32" as="geometry" />
        </mxCell>
        <mxCell id="MEUtMW8uSptJMOQuRIBu-27" value="+boolean actualizar(Participante)" style="text;strokeColor=none;fillColor=none;align=left;verticalAlign=top;spacingLeft=4;spacingRight=4;overflow=hidden;rotatable=0;points=[[0,0.5],[1,0.5]];portConstraint=eastwest;labelBackgroundColor=none;fontColor=#1D3557;rounded=1;" parent="MEUtMW8uSptJMOQuRIBu-23" vertex="1">
          <mxGeometry y="103.73333333333333" width="496" height="32" as="geometry" />
        </mxCell>
        <mxCell id="MEUtMW8uSptJMOQuRIBu-28" value="+boolean eliminar(String correo)" style="text;strokeColor=none;fillColor=none;align=left;verticalAlign=top;spacingLeft=4;spacingRight=4;overflow=hidden;rotatable=0;points=[[0,0.5],[1,0.5]];portConstraint=eastwest;labelBackgroundColor=none;fontColor=#1D3557;rounded=1;" parent="MEUtMW8uSptJMOQuRIBu-23" vertex="1">
          <mxGeometry y="135.73333333333335" width="496" height="32" as="geometry" />
        </mxCell>
        <mxCell id="MEUtMW8uSptJMOQuRIBu-29" value="+List&lt;Participante&gt; listar()" style="text;strokeColor=none;fillColor=none;align=left;verticalAlign=top;spacingLeft=4;spacingRight=4;overflow=hidden;rotatable=0;points=[[0,0.5],[1,0.5]];portConstraint=eastwest;labelBackgroundColor=none;fontColor=#1D3557;rounded=1;" parent="MEUtMW8uSptJMOQuRIBu-23" vertex="1">
          <mxGeometry y="167.73333333333335" width="496" height="32" as="geometry" />
        </mxCell>
        <mxCell id="MEUtMW8uSptJMOQuRIBu-30" value="+List&lt;Participante&gt; buscarPorNombreLike(String nombre)" style="text;strokeColor=none;fillColor=none;align=left;verticalAlign=top;spacingLeft=4;spacingRight=4;overflow=hidden;rotatable=0;points=[[0,0.5],[1,0.5]];portConstraint=eastwest;labelBackgroundColor=none;fontColor=#1D3557;rounded=1;" parent="MEUtMW8uSptJMOQuRIBu-23" vertex="1">
          <mxGeometry y="199.73333333333335" width="496" height="32" as="geometry" />
        </mxCell>
        <mxCell id="MEUtMW8uSptJMOQuRIBu-31" value="Inscripcion" style="swimlane;fontStyle=1;align=center;verticalAlign=top;childLayout=stackLayout;horizontal=1;startSize=32;horizontalStack=0;resizeParent=1;resizeParentMax=0;resizeLast=0;collapsible=0;marginBottom=0;labelBackgroundColor=none;fillColor=#A8DADC;strokeColor=#457B9D;fontColor=#1D3557;rounded=1;" parent="1" vertex="1">
          <mxGeometry x="740" y="238" width="223" height="208" as="geometry" />
        </mxCell>
        <mxCell id="MEUtMW8uSptJMOQuRIBu-32" value="+String correo" style="text;strokeColor=none;fillColor=none;align=left;verticalAlign=top;spacingLeft=4;spacingRight=4;overflow=hidden;rotatable=0;points=[[0,0.5],[1,0.5]];portConstraint=eastwest;labelBackgroundColor=none;fontColor=#1D3557;rounded=1;" parent="MEUtMW8uSptJMOQuRIBu-31" vertex="1">
          <mxGeometry y="32" width="223" height="32" as="geometry" />
        </mxCell>
        <mxCell id="MEUtMW8uSptJMOQuRIBu-33" value="+String codigoEvento" style="text;strokeColor=none;fillColor=none;align=left;verticalAlign=top;spacingLeft=4;spacingRight=4;overflow=hidden;rotatable=0;points=[[0,0.5],[1,0.5]];portConstraint=eastwest;labelBackgroundColor=none;fontColor=#1D3557;rounded=1;" parent="MEUtMW8uSptJMOQuRIBu-31" vertex="1">
          <mxGeometry y="64" width="223" height="32" as="geometry" />
        </mxCell>
        <mxCell id="MEUtMW8uSptJMOQuRIBu-34" value="+String tipo" style="text;strokeColor=none;fillColor=none;align=left;verticalAlign=top;spacingLeft=4;spacingRight=4;overflow=hidden;rotatable=0;points=[[0,0.5],[1,0.5]];portConstraint=eastwest;labelBackgroundColor=none;fontColor=#1D3557;rounded=1;" parent="MEUtMW8uSptJMOQuRIBu-31" vertex="1">
          <mxGeometry y="96" width="223" height="32" as="geometry" />
        </mxCell>
        <mxCell id="MEUtMW8uSptJMOQuRIBu-35" value="+String estado" style="text;strokeColor=none;fillColor=none;align=left;verticalAlign=top;spacingLeft=4;spacingRight=4;overflow=hidden;rotatable=0;points=[[0,0.5],[1,0.5]];portConstraint=eastwest;labelBackgroundColor=none;fontColor=#1D3557;rounded=1;" parent="MEUtMW8uSptJMOQuRIBu-31" vertex="1">
          <mxGeometry y="128" width="223" height="32" as="geometry" />
        </mxCell>
        <mxCell id="MEUtMW8uSptJMOQuRIBu-36" value="+Timestamp creadoEn" style="text;strokeColor=none;fillColor=none;align=left;verticalAlign=top;spacingLeft=4;spacingRight=4;overflow=hidden;rotatable=0;points=[[0,0.5],[1,0.5]];portConstraint=eastwest;labelBackgroundColor=none;fontColor=#1D3557;rounded=1;" parent="MEUtMW8uSptJMOQuRIBu-31" vertex="1">
          <mxGeometry y="160" width="223" height="32" as="geometry" />
        </mxCell>
        <mxCell id="MEUtMW8uSptJMOQuRIBu-37" style="line;strokeWidth=1;fillColor=none;align=left;verticalAlign=middle;spacingTop=-1;spacingLeft=3;spacingRight=3;rotatable=0;labelPosition=right;points=[];portConstraint=eastwest;strokeColor=#457B9D;labelBackgroundColor=none;fontColor=#1D3557;rounded=1;" parent="MEUtMW8uSptJMOQuRIBu-31" vertex="1">
          <mxGeometry y="192" width="223" height="16" as="geometry" />
        </mxCell>
        <mxCell id="MEUtMW8uSptJMOQuRIBu-38" value="InscripcionDAO" style="swimlane;fontStyle=1;align=center;verticalAlign=top;childLayout=stackLayout;horizontal=1;startSize=29.523809523809526;horizontalStack=0;resizeParent=1;resizeParentMax=0;resizeLast=0;collapsible=0;marginBottom=0;labelBackgroundColor=none;fillColor=#A8DADC;strokeColor=#457B9D;fontColor=#1D3557;rounded=1;" parent="1" vertex="1">
          <mxGeometry x="1221" y="576" width="631" height="307.5238095238095" as="geometry" />
        </mxCell>
        <mxCell id="MEUtMW8uSptJMOQuRIBu-39" style="line;strokeWidth=1;fillColor=none;align=left;verticalAlign=middle;spacingTop=-1;spacingLeft=3;spacingRight=3;rotatable=0;labelPosition=right;points=[];portConstraint=eastwest;strokeColor=#457B9D;labelBackgroundColor=none;fontColor=#1D3557;rounded=1;" parent="MEUtMW8uSptJMOQuRIBu-38" vertex="1">
          <mxGeometry y="29.523809523809526" width="631" height="8" as="geometry" />
        </mxCell>
        <mxCell id="MEUtMW8uSptJMOQuRIBu-40" value="+boolean crear(Inscripcion)" style="text;strokeColor=none;fillColor=none;align=left;verticalAlign=top;spacingLeft=4;spacingRight=4;overflow=hidden;rotatable=0;points=[[0,0.5],[1,0.5]];portConstraint=eastwest;labelBackgroundColor=none;fontColor=#1D3557;rounded=1;" parent="MEUtMW8uSptJMOQuRIBu-38" vertex="1">
          <mxGeometry y="37.523809523809526" width="631" height="30" as="geometry" />
        </mxCell>
        <mxCell id="MEUtMW8uSptJMOQuRIBu-41" value="+Inscripcion obtener(String correo, String codigoEvento)" style="text;strokeColor=none;fillColor=none;align=left;verticalAlign=top;spacingLeft=4;spacingRight=4;overflow=hidden;rotatable=0;points=[[0,0.5],[1,0.5]];portConstraint=eastwest;labelBackgroundColor=none;fontColor=#1D3557;rounded=1;" parent="MEUtMW8uSptJMOQuRIBu-38" vertex="1">
          <mxGeometry y="67.52380952380952" width="631" height="30" as="geometry" />
        </mxCell>
        <mxCell id="MEUtMW8uSptJMOQuRIBu-42" value="+boolean actualizarEstado(String correo, String codigoEvento, String estado)" style="text;strokeColor=none;fillColor=none;align=left;verticalAlign=top;spacingLeft=4;spacingRight=4;overflow=hidden;rotatable=0;points=[[0,0.5],[1,0.5]];portConstraint=eastwest;labelBackgroundColor=none;fontColor=#1D3557;rounded=1;" parent="MEUtMW8uSptJMOQuRIBu-38" vertex="1">
          <mxGeometry y="97.52380952380952" width="631" height="30" as="geometry" />
        </mxCell>
        <mxCell id="MEUtMW8uSptJMOQuRIBu-43" value="+boolean eliminar(String correo, String codigoEvento)" style="text;strokeColor=none;fillColor=none;align=left;verticalAlign=top;spacingLeft=4;spacingRight=4;overflow=hidden;rotatable=0;points=[[0,0.5],[1,0.5]];portConstraint=eastwest;labelBackgroundColor=none;fontColor=#1D3557;rounded=1;" parent="MEUtMW8uSptJMOQuRIBu-38" vertex="1">
          <mxGeometry y="127.52380952380952" width="631" height="30" as="geometry" />
        </mxCell>
        <mxCell id="MEUtMW8uSptJMOQuRIBu-44" value="+List&lt;Inscripcion&gt; listarPorEvento(String codigoEvento)" style="text;strokeColor=none;fillColor=none;align=left;verticalAlign=top;spacingLeft=4;spacingRight=4;overflow=hidden;rotatable=0;points=[[0,0.5],[1,0.5]];portConstraint=eastwest;labelBackgroundColor=none;fontColor=#1D3557;rounded=1;" parent="MEUtMW8uSptJMOQuRIBu-38" vertex="1">
          <mxGeometry y="157.52380952380952" width="631" height="30" as="geometry" />
        </mxCell>
        <mxCell id="MEUtMW8uSptJMOQuRIBu-45" value="+int contarValidadasPorEvento(String codigoEvento)" style="text;strokeColor=none;fillColor=none;align=left;verticalAlign=top;spacingLeft=4;spacingRight=4;overflow=hidden;rotatable=0;points=[[0,0.5],[1,0.5]];portConstraint=eastwest;labelBackgroundColor=none;fontColor=#1D3557;rounded=1;" parent="MEUtMW8uSptJMOQuRIBu-38" vertex="1">
          <mxGeometry y="187.52380952380952" width="631" height="30" as="geometry" />
        </mxCell>
        <mxCell id="MEUtMW8uSptJMOQuRIBu-46" value="+double obtenerTarifaEvento(String codigoEvento)" style="text;strokeColor=none;fillColor=none;align=left;verticalAlign=top;spacingLeft=4;spacingRight=4;overflow=hidden;rotatable=0;points=[[0,0.5],[1,0.5]];portConstraint=eastwest;labelBackgroundColor=none;fontColor=#1D3557;rounded=1;" parent="MEUtMW8uSptJMOQuRIBu-38" vertex="1">
          <mxGeometry y="217.52380952380952" width="631" height="30" as="geometry" />
        </mxCell>
        <mxCell id="MEUtMW8uSptJMOQuRIBu-47" value="+double sumarPagosInscripcion(String correo, String codigoEvento)" style="text;strokeColor=none;fillColor=none;align=left;verticalAlign=top;spacingLeft=4;spacingRight=4;overflow=hidden;rotatable=0;points=[[0,0.5],[1,0.5]];portConstraint=eastwest;labelBackgroundColor=none;fontColor=#1D3557;rounded=1;" parent="MEUtMW8uSptJMOQuRIBu-38" vertex="1">
          <mxGeometry y="247.52380952380952" width="631" height="30" as="geometry" />
        </mxCell>
        <mxCell id="MEUtMW8uSptJMOQuRIBu-48" value="+int obtenerCupoEvento(String codigoEvento)" style="text;strokeColor=none;fillColor=none;align=left;verticalAlign=top;spacingLeft=4;spacingRight=4;overflow=hidden;rotatable=0;points=[[0,0.5],[1,0.5]];portConstraint=eastwest;labelBackgroundColor=none;fontColor=#1D3557;rounded=1;" parent="MEUtMW8uSptJMOQuRIBu-38" vertex="1">
          <mxGeometry y="277.5238095238095" width="631" height="30" as="geometry" />
        </mxCell>
        <mxCell id="MEUtMW8uSptJMOQuRIBu-49" value="InscripcionService" style="swimlane;fontStyle=1;align=center;verticalAlign=top;childLayout=stackLayout;horizontal=1;startSize=47.2;horizontalStack=0;resizeParent=1;resizeParentMax=0;resizeLast=0;collapsible=0;marginBottom=0;labelBackgroundColor=none;fillColor=#A8DADC;strokeColor=#457B9D;fontColor=#1D3557;rounded=1;" parent="1" vertex="1">
          <mxGeometry x="1080" y="327.68" width="545" height="102.2" as="geometry" />
        </mxCell>
        <mxCell id="MEUtMW8uSptJMOQuRIBu-50" style="line;strokeWidth=1;fillColor=none;align=left;verticalAlign=middle;spacingTop=-1;spacingLeft=3;spacingRight=3;rotatable=0;labelPosition=right;points=[];portConstraint=eastwest;strokeColor=#457B9D;labelBackgroundColor=none;fontColor=#1D3557;rounded=1;" parent="MEUtMW8uSptJMOQuRIBu-49" vertex="1">
          <mxGeometry y="47.2" width="545" height="8" as="geometry" />
        </mxCell>
        <mxCell id="MEUtMW8uSptJMOQuRIBu-51" value="+boolean validarInscripcion(String correo, String codigoEvento)" style="text;strokeColor=none;fillColor=none;align=left;verticalAlign=top;spacingLeft=4;spacingRight=4;overflow=hidden;rotatable=0;points=[[0,0.5],[1,0.5]];portConstraint=eastwest;labelBackgroundColor=none;fontColor=#1D3557;rounded=1;" parent="MEUtMW8uSptJMOQuRIBu-49" vertex="1">
          <mxGeometry y="55.2" width="545" height="47" as="geometry" />
        </mxCell>
        <mxCell id="MEUtMW8uSptJMOQuRIBu-52" value="PagoDAO" style="swimlane;fontStyle=1;align=center;verticalAlign=top;childLayout=stackLayout;horizontal=1;startSize=40.57142857142857;horizontalStack=0;resizeParent=1;resizeParentMax=0;resizeLast=0;collapsible=0;marginBottom=0;labelBackgroundColor=none;fillColor=#A8DADC;strokeColor=#457B9D;fontColor=#1D3557;rounded=1;" parent="1" vertex="1">
          <mxGeometry x="1956" y="725.16" width="408" height="130.57142857142856" as="geometry" />
        </mxCell>
        <mxCell id="MEUtMW8uSptJMOQuRIBu-53" style="line;strokeWidth=1;fillColor=none;align=left;verticalAlign=middle;spacingTop=-1;spacingLeft=3;spacingRight=3;rotatable=0;labelPosition=right;points=[];portConstraint=eastwest;strokeColor=#457B9D;labelBackgroundColor=none;fontColor=#1D3557;rounded=1;" parent="MEUtMW8uSptJMOQuRIBu-52" vertex="1">
          <mxGeometry y="40.57142857142857" width="408" height="8" as="geometry" />
        </mxCell>
        <mxCell id="MEUtMW8uSptJMOQuRIBu-54" value="+boolean crear(Pago)" style="text;strokeColor=none;fillColor=none;align=left;verticalAlign=top;spacingLeft=4;spacingRight=4;overflow=hidden;rotatable=0;points=[[0,0.5],[1,0.5]];portConstraint=eastwest;labelBackgroundColor=none;fontColor=#1D3557;rounded=1;" parent="MEUtMW8uSptJMOQuRIBu-52" vertex="1">
          <mxGeometry y="48.57142857142857" width="408" height="41" as="geometry" />
        </mxCell>
        <mxCell id="MEUtMW8uSptJMOQuRIBu-55" value="+List&lt;Pago&gt; listarPorEvento(String codigoEvento)" style="text;strokeColor=none;fillColor=none;align=left;verticalAlign=top;spacingLeft=4;spacingRight=4;overflow=hidden;rotatable=0;points=[[0,0.5],[1,0.5]];portConstraint=eastwest;labelBackgroundColor=none;fontColor=#1D3557;rounded=1;" parent="MEUtMW8uSptJMOQuRIBu-52" vertex="1">
          <mxGeometry y="89.57142857142857" width="408" height="41" as="geometry" />
        </mxCell>
        <mxCell id="MEUtMW8uSptJMOQuRIBu-56" value="Pago" style="swimlane;fontStyle=1;align=center;verticalAlign=top;childLayout=stackLayout;horizontal=1;startSize=32;horizontalStack=0;resizeParent=1;resizeParentMax=0;resizeLast=0;collapsible=0;marginBottom=0;labelBackgroundColor=none;fillColor=#A8DADC;strokeColor=#457B9D;fontColor=#1D3557;rounded=1;" parent="1" vertex="1">
          <mxGeometry x="1852" y="206" width="199" height="240" as="geometry" />
        </mxCell>
        <mxCell id="MEUtMW8uSptJMOQuRIBu-57" value="+String correo" style="text;strokeColor=none;fillColor=none;align=left;verticalAlign=top;spacingLeft=4;spacingRight=4;overflow=hidden;rotatable=0;points=[[0,0.5],[1,0.5]];portConstraint=eastwest;labelBackgroundColor=none;fontColor=#1D3557;rounded=1;" parent="MEUtMW8uSptJMOQuRIBu-56" vertex="1">
          <mxGeometry y="32" width="199" height="32" as="geometry" />
        </mxCell>
        <mxCell id="MEUtMW8uSptJMOQuRIBu-58" value="+String codigoEvento" style="text;strokeColor=none;fillColor=none;align=left;verticalAlign=top;spacingLeft=4;spacingRight=4;overflow=hidden;rotatable=0;points=[[0,0.5],[1,0.5]];portConstraint=eastwest;labelBackgroundColor=none;fontColor=#1D3557;rounded=1;" parent="MEUtMW8uSptJMOQuRIBu-56" vertex="1">
          <mxGeometry y="64" width="199" height="32" as="geometry" />
        </mxCell>
        <mxCell id="MEUtMW8uSptJMOQuRIBu-59" value="+String metodo" style="text;strokeColor=none;fillColor=none;align=left;verticalAlign=top;spacingLeft=4;spacingRight=4;overflow=hidden;rotatable=0;points=[[0,0.5],[1,0.5]];portConstraint=eastwest;labelBackgroundColor=none;fontColor=#1D3557;rounded=1;" parent="MEUtMW8uSptJMOQuRIBu-56" vertex="1">
          <mxGeometry y="96" width="199" height="32" as="geometry" />
        </mxCell>
        <mxCell id="MEUtMW8uSptJMOQuRIBu-160" value="+double monto" style="text;strokeColor=none;fillColor=none;align=left;verticalAlign=top;spacingLeft=4;spacingRight=4;overflow=hidden;rotatable=0;points=[[0,0.5],[1,0.5]];portConstraint=eastwest;labelBackgroundColor=none;fontColor=#1D3557;rounded=1;" parent="MEUtMW8uSptJMOQuRIBu-56" vertex="1">
          <mxGeometry y="128" width="199" height="32" as="geometry" />
        </mxCell>
        <mxCell id="MEUtMW8uSptJMOQuRIBu-60" value="+double monto" style="text;strokeColor=none;fillColor=none;align=left;verticalAlign=top;spacingLeft=4;spacingRight=4;overflow=hidden;rotatable=0;points=[[0,0.5],[1,0.5]];portConstraint=eastwest;labelBackgroundColor=none;fontColor=#1D3557;rounded=1;" parent="MEUtMW8uSptJMOQuRIBu-56" vertex="1">
          <mxGeometry y="160" width="199" height="32" as="geometry" />
        </mxCell>
        <mxCell id="MEUtMW8uSptJMOQuRIBu-61" value="+Timestamp creadoEn" style="text;strokeColor=none;fillColor=none;align=left;verticalAlign=top;spacingLeft=4;spacingRight=4;overflow=hidden;rotatable=0;points=[[0,0.5],[1,0.5]];portConstraint=eastwest;labelBackgroundColor=none;fontColor=#1D3557;rounded=1;" parent="MEUtMW8uSptJMOQuRIBu-56" vertex="1">
          <mxGeometry y="192" width="199" height="32" as="geometry" />
        </mxCell>
        <mxCell id="MEUtMW8uSptJMOQuRIBu-62" style="line;strokeWidth=1;fillColor=none;align=left;verticalAlign=middle;spacingTop=-1;spacingLeft=3;spacingRight=3;rotatable=0;labelPosition=right;points=[];portConstraint=eastwest;strokeColor=#457B9D;labelBackgroundColor=none;fontColor=#1D3557;rounded=1;" parent="MEUtMW8uSptJMOQuRIBu-56" vertex="1">
          <mxGeometry y="224" width="199" height="16" as="geometry" />
        </mxCell>
        <mxCell id="MEUtMW8uSptJMOQuRIBu-63" value="PagoService" style="swimlane;fontStyle=1;align=center;verticalAlign=top;childLayout=stackLayout;horizontal=1;startSize=47.2;horizontalStack=0;resizeParent=1;resizeParentMax=0;resizeLast=0;collapsible=0;marginBottom=0;labelBackgroundColor=none;fillColor=#A8DADC;strokeColor=#457B9D;fontColor=#1D3557;rounded=1;" parent="1" vertex="1">
          <mxGeometry x="1170" y="41" width="805" height="102.2" as="geometry" />
        </mxCell>
        <mxCell id="MEUtMW8uSptJMOQuRIBu-64" style="line;strokeWidth=1;fillColor=none;align=left;verticalAlign=middle;spacingTop=-1;spacingLeft=3;spacingRight=3;rotatable=0;labelPosition=right;points=[];portConstraint=eastwest;strokeColor=#457B9D;labelBackgroundColor=none;fontColor=#1D3557;rounded=1;" parent="MEUtMW8uSptJMOQuRIBu-63" vertex="1">
          <mxGeometry y="47.2" width="805" height="8" as="geometry" />
        </mxCell>
        <mxCell id="MEUtMW8uSptJMOQuRIBu-65" value="+ResultadoPago registrarPagoExacto(String correo, String codigoEvento, String metodo, double monto)" style="text;strokeColor=none;fillColor=none;align=left;verticalAlign=top;spacingLeft=4;spacingRight=4;overflow=hidden;rotatable=0;points=[[0,0.5],[1,0.5]];portConstraint=eastwest;labelBackgroundColor=none;fontColor=#1D3557;rounded=1;" parent="MEUtMW8uSptJMOQuRIBu-63" vertex="1">
          <mxGeometry y="55.2" width="805" height="47" as="geometry" />
        </mxCell>
        <mxCell id="MEUtMW8uSptJMOQuRIBu-66" value="ResultadoPago" style="swimlane;fontStyle=1;align=center;verticalAlign=top;childLayout=stackLayout;horizontal=1;startSize=40;horizontalStack=0;resizeParent=1;resizeParentMax=0;resizeLast=0;collapsible=0;marginBottom=0;labelBackgroundColor=none;fillColor=#A8DADC;strokeColor=#457B9D;fontColor=#1D3557;rounded=1;" parent="1" vertex="1">
          <mxGeometry x="2450" y="661.9200000000001" width="201" height="168" as="geometry" />
        </mxCell>
        <mxCell id="MEUtMW8uSptJMOQuRIBu-67" value="+boolean exito" style="text;strokeColor=none;fillColor=none;align=left;verticalAlign=top;spacingLeft=4;spacingRight=4;overflow=hidden;rotatable=0;points=[[0,0.5],[1,0.5]];portConstraint=eastwest;labelBackgroundColor=none;fontColor=#1D3557;rounded=1;" parent="MEUtMW8uSptJMOQuRIBu-66" vertex="1">
          <mxGeometry y="40" width="201" height="40" as="geometry" />
        </mxCell>
        <mxCell id="MEUtMW8uSptJMOQuRIBu-68" value="+String mensaje" style="text;strokeColor=none;fillColor=none;align=left;verticalAlign=top;spacingLeft=4;spacingRight=4;overflow=hidden;rotatable=0;points=[[0,0.5],[1,0.5]];portConstraint=eastwest;labelBackgroundColor=none;fontColor=#1D3557;rounded=1;" parent="MEUtMW8uSptJMOQuRIBu-66" vertex="1">
          <mxGeometry y="80" width="201" height="40" as="geometry" />
        </mxCell>
        <mxCell id="MEUtMW8uSptJMOQuRIBu-69" style="line;strokeWidth=1;fillColor=none;align=left;verticalAlign=middle;spacingTop=-1;spacingLeft=3;spacingRight=3;rotatable=0;labelPosition=right;points=[];portConstraint=eastwest;strokeColor=#457B9D;labelBackgroundColor=none;fontColor=#1D3557;rounded=1;" parent="MEUtMW8uSptJMOQuRIBu-66" vertex="1">
          <mxGeometry y="120" width="201" height="8" as="geometry" />
        </mxCell>
        <mxCell id="MEUtMW8uSptJMOQuRIBu-70" value="+String toString()" style="text;strokeColor=none;fillColor=none;align=left;verticalAlign=top;spacingLeft=4;spacingRight=4;overflow=hidden;rotatable=0;points=[[0,0.5],[1,0.5]];portConstraint=eastwest;labelBackgroundColor=none;fontColor=#1D3557;rounded=1;" parent="MEUtMW8uSptJMOQuRIBu-66" vertex="1">
          <mxGeometry y="128" width="201" height="40" as="geometry" />
        </mxCell>
        <mxCell id="MEUtMW8uSptJMOQuRIBu-71" value="Actividad" style="swimlane;fontStyle=1;align=center;verticalAlign=top;childLayout=stackLayout;horizontal=1;startSize=29.473684210526315;horizontalStack=0;resizeParent=1;resizeParentMax=0;resizeLast=0;collapsible=0;marginBottom=0;labelBackgroundColor=none;fillColor=#A8DADC;strokeColor=#457B9D;fontColor=#1D3557;rounded=1;" parent="1" vertex="1">
          <mxGeometry x="2850" y="50" width="230" height="276.4736842105263" as="geometry" />
        </mxCell>
        <mxCell id="MEUtMW8uSptJMOQuRIBu-72" value="+String codigo" style="text;strokeColor=none;fillColor=none;align=left;verticalAlign=top;spacingLeft=4;spacingRight=4;overflow=hidden;rotatable=0;points=[[0,0.5],[1,0.5]];portConstraint=eastwest;labelBackgroundColor=none;fontColor=#1D3557;rounded=1;" parent="MEUtMW8uSptJMOQuRIBu-71" vertex="1">
          <mxGeometry y="29.473684210526315" width="230" height="29" as="geometry" />
        </mxCell>
        <mxCell id="MEUtMW8uSptJMOQuRIBu-73" value="+String codigoEvento" style="text;strokeColor=none;fillColor=none;align=left;verticalAlign=top;spacingLeft=4;spacingRight=4;overflow=hidden;rotatable=0;points=[[0,0.5],[1,0.5]];portConstraint=eastwest;labelBackgroundColor=none;fontColor=#1D3557;rounded=1;" parent="MEUtMW8uSptJMOQuRIBu-71" vertex="1">
          <mxGeometry y="58.473684210526315" width="230" height="29" as="geometry" />
        </mxCell>
        <mxCell id="MEUtMW8uSptJMOQuRIBu-74" value="+String tipo" style="text;strokeColor=none;fillColor=none;align=left;verticalAlign=top;spacingLeft=4;spacingRight=4;overflow=hidden;rotatable=0;points=[[0,0.5],[1,0.5]];portConstraint=eastwest;labelBackgroundColor=none;fontColor=#1D3557;rounded=1;" parent="MEUtMW8uSptJMOQuRIBu-71" vertex="1">
          <mxGeometry y="87.47368421052632" width="230" height="29" as="geometry" />
        </mxCell>
        <mxCell id="MEUtMW8uSptJMOQuRIBu-75" value="+String titulo" style="text;strokeColor=none;fillColor=none;align=left;verticalAlign=top;spacingLeft=4;spacingRight=4;overflow=hidden;rotatable=0;points=[[0,0.5],[1,0.5]];portConstraint=eastwest;labelBackgroundColor=none;fontColor=#1D3557;rounded=1;" parent="MEUtMW8uSptJMOQuRIBu-71" vertex="1">
          <mxGeometry y="116.47368421052632" width="230" height="29" as="geometry" />
        </mxCell>
        <mxCell id="MEUtMW8uSptJMOQuRIBu-76" value="+String correoInstructor" style="text;strokeColor=none;fillColor=none;align=left;verticalAlign=top;spacingLeft=4;spacingRight=4;overflow=hidden;rotatable=0;points=[[0,0.5],[1,0.5]];portConstraint=eastwest;labelBackgroundColor=none;fontColor=#1D3557;rounded=1;" parent="MEUtMW8uSptJMOQuRIBu-71" vertex="1">
          <mxGeometry y="145.4736842105263" width="230" height="29" as="geometry" />
        </mxCell>
        <mxCell id="MEUtMW8uSptJMOQuRIBu-77" value="+LocalTime horaInicio" style="text;strokeColor=none;fillColor=none;align=left;verticalAlign=top;spacingLeft=4;spacingRight=4;overflow=hidden;rotatable=0;points=[[0,0.5],[1,0.5]];portConstraint=eastwest;labelBackgroundColor=none;fontColor=#1D3557;rounded=1;" parent="MEUtMW8uSptJMOQuRIBu-71" vertex="1">
          <mxGeometry y="174.4736842105263" width="230" height="29" as="geometry" />
        </mxCell>
        <mxCell id="MEUtMW8uSptJMOQuRIBu-78" value="+LocalTime horaFin" style="text;strokeColor=none;fillColor=none;align=left;verticalAlign=top;spacingLeft=4;spacingRight=4;overflow=hidden;rotatable=0;points=[[0,0.5],[1,0.5]];portConstraint=eastwest;labelBackgroundColor=none;fontColor=#1D3557;rounded=1;" parent="MEUtMW8uSptJMOQuRIBu-71" vertex="1">
          <mxGeometry y="203.4736842105263" width="230" height="29" as="geometry" />
        </mxCell>
        <mxCell id="MEUtMW8uSptJMOQuRIBu-79" value="+int cupo" style="text;strokeColor=none;fillColor=none;align=left;verticalAlign=top;spacingLeft=4;spacingRight=4;overflow=hidden;rotatable=0;points=[[0,0.5],[1,0.5]];portConstraint=eastwest;labelBackgroundColor=none;fontColor=#1D3557;rounded=1;" parent="MEUtMW8uSptJMOQuRIBu-71" vertex="1">
          <mxGeometry y="232.4736842105263" width="230" height="29" as="geometry" />
        </mxCell>
        <mxCell id="MEUtMW8uSptJMOQuRIBu-80" style="line;strokeWidth=1;fillColor=none;align=left;verticalAlign=middle;spacingTop=-1;spacingLeft=3;spacingRight=3;rotatable=0;labelPosition=right;points=[];portConstraint=eastwest;strokeColor=#457B9D;labelBackgroundColor=none;fontColor=#1D3557;rounded=1;" parent="MEUtMW8uSptJMOQuRIBu-71" vertex="1">
          <mxGeometry y="261.4736842105263" width="230" height="15" as="geometry" />
        </mxCell>
        <mxCell id="MEUtMW8uSptJMOQuRIBu-81" value="ActividadDAO" style="swimlane;fontStyle=1;align=center;verticalAlign=top;childLayout=stackLayout;horizontal=1;startSize=34.54545454545455;horizontalStack=0;resizeParent=1;resizeParentMax=0;resizeLast=0;collapsible=0;marginBottom=0;labelBackgroundColor=none;fillColor=#A8DADC;strokeColor=#457B9D;fontColor=#1D3557;rounded=1;" parent="1" vertex="1">
          <mxGeometry x="2728" y="636" width="459" height="182.54545454545456" as="geometry" />
        </mxCell>
        <mxCell id="MEUtMW8uSptJMOQuRIBu-82" style="line;strokeWidth=1;fillColor=none;align=left;verticalAlign=middle;spacingTop=-1;spacingLeft=3;spacingRight=3;rotatable=0;labelPosition=right;points=[];portConstraint=eastwest;strokeColor=#457B9D;labelBackgroundColor=none;fontColor=#1D3557;rounded=1;" parent="MEUtMW8uSptJMOQuRIBu-81" vertex="1">
          <mxGeometry y="34.54545454545455" width="459" height="8" as="geometry" />
        </mxCell>
        <mxCell id="MEUtMW8uSptJMOQuRIBu-83" value="+boolean crear(Actividad)" style="text;strokeColor=none;fillColor=none;align=left;verticalAlign=top;spacingLeft=4;spacingRight=4;overflow=hidden;rotatable=0;points=[[0,0.5],[1,0.5]];portConstraint=eastwest;labelBackgroundColor=none;fontColor=#1D3557;rounded=1;" parent="MEUtMW8uSptJMOQuRIBu-81" vertex="1">
          <mxGeometry y="42.54545454545455" width="459" height="35" as="geometry" />
        </mxCell>
        <mxCell id="MEUtMW8uSptJMOQuRIBu-84" value="+Actividad obtener(String codigo)" style="text;strokeColor=none;fillColor=none;align=left;verticalAlign=top;spacingLeft=4;spacingRight=4;overflow=hidden;rotatable=0;points=[[0,0.5],[1,0.5]];portConstraint=eastwest;labelBackgroundColor=none;fontColor=#1D3557;rounded=1;" parent="MEUtMW8uSptJMOQuRIBu-81" vertex="1">
          <mxGeometry y="77.54545454545455" width="459" height="35" as="geometry" />
        </mxCell>
        <mxCell id="MEUtMW8uSptJMOQuRIBu-85" value="+boolean eliminar(String codigo)" style="text;strokeColor=none;fillColor=none;align=left;verticalAlign=top;spacingLeft=4;spacingRight=4;overflow=hidden;rotatable=0;points=[[0,0.5],[1,0.5]];portConstraint=eastwest;labelBackgroundColor=none;fontColor=#1D3557;rounded=1;" parent="MEUtMW8uSptJMOQuRIBu-81" vertex="1">
          <mxGeometry y="112.54545454545455" width="459" height="35" as="geometry" />
        </mxCell>
        <mxCell id="MEUtMW8uSptJMOQuRIBu-86" value="+List&lt;Actividad&gt; listarPorEvento(String codigoEvento)" style="text;strokeColor=none;fillColor=none;align=left;verticalAlign=top;spacingLeft=4;spacingRight=4;overflow=hidden;rotatable=0;points=[[0,0.5],[1,0.5]];portConstraint=eastwest;labelBackgroundColor=none;fontColor=#1D3557;rounded=1;" parent="MEUtMW8uSptJMOQuRIBu-81" vertex="1">
          <mxGeometry y="147.54545454545456" width="459" height="35" as="geometry" />
        </mxCell>
        <mxCell id="MEUtMW8uSptJMOQuRIBu-87" value="ActividadService" style="swimlane;fontStyle=1;align=center;verticalAlign=top;childLayout=stackLayout;horizontal=1;startSize=47.2;horizontalStack=0;resizeParent=1;resizeParentMax=0;resizeLast=0;collapsible=0;marginBottom=0;labelBackgroundColor=none;fillColor=#A8DADC;strokeColor=#457B9D;fontColor=#1D3557;rounded=1;" parent="1" vertex="1">
          <mxGeometry x="2290" y="327.68" width="443" height="102.2" as="geometry" />
        </mxCell>
        <mxCell id="MEUtMW8uSptJMOQuRIBu-88" style="line;strokeWidth=1;fillColor=none;align=left;verticalAlign=middle;spacingTop=-1;spacingLeft=3;spacingRight=3;rotatable=0;labelPosition=right;points=[];portConstraint=eastwest;strokeColor=#457B9D;labelBackgroundColor=none;fontColor=#1D3557;rounded=1;" parent="MEUtMW8uSptJMOQuRIBu-87" vertex="1">
          <mxGeometry y="47.2" width="443" height="8" as="geometry" />
        </mxCell>
        <mxCell id="MEUtMW8uSptJMOQuRIBu-89" value="+boolean crearConValidacion(Actividad actividad)" style="text;strokeColor=none;fillColor=none;align=left;verticalAlign=top;spacingLeft=4;spacingRight=4;overflow=hidden;rotatable=0;points=[[0,0.5],[1,0.5]];portConstraint=eastwest;labelBackgroundColor=none;fontColor=#1D3557;rounded=1;" parent="MEUtMW8uSptJMOQuRIBu-87" vertex="1">
          <mxGeometry y="55.2" width="443" height="47" as="geometry" />
        </mxCell>
        <mxCell id="MEUtMW8uSptJMOQuRIBu-90" value="Asistencia" style="swimlane;fontStyle=1;align=center;verticalAlign=top;childLayout=stackLayout;horizontal=1;startSize=35.55555555555556;horizontalStack=0;resizeParent=1;resizeParentMax=0;resizeLast=0;collapsible=0;marginBottom=0;labelBackgroundColor=none;fillColor=#A8DADC;strokeColor=#457B9D;fontColor=#1D3557;rounded=1;" parent="1" vertex="1">
          <mxGeometry x="3740" y="278" width="230" height="161.55555555555554" as="geometry" />
        </mxCell>
        <mxCell id="MEUtMW8uSptJMOQuRIBu-91" value="+String correo" style="text;strokeColor=none;fillColor=none;align=left;verticalAlign=top;spacingLeft=4;spacingRight=4;overflow=hidden;rotatable=0;points=[[0,0.5],[1,0.5]];portConstraint=eastwest;labelBackgroundColor=none;fontColor=#1D3557;rounded=1;" parent="MEUtMW8uSptJMOQuRIBu-90" vertex="1">
          <mxGeometry y="35.55555555555556" width="230" height="36" as="geometry" />
        </mxCell>
        <mxCell id="MEUtMW8uSptJMOQuRIBu-92" value="+String codigoActividad" style="text;strokeColor=none;fillColor=none;align=left;verticalAlign=top;spacingLeft=4;spacingRight=4;overflow=hidden;rotatable=0;points=[[0,0.5],[1,0.5]];portConstraint=eastwest;labelBackgroundColor=none;fontColor=#1D3557;rounded=1;" parent="MEUtMW8uSptJMOQuRIBu-90" vertex="1">
          <mxGeometry y="71.55555555555556" width="230" height="36" as="geometry" />
        </mxCell>
        <mxCell id="MEUtMW8uSptJMOQuRIBu-93" value="+Timestamp creadoEn" style="text;strokeColor=none;fillColor=none;align=left;verticalAlign=top;spacingLeft=4;spacingRight=4;overflow=hidden;rotatable=0;points=[[0,0.5],[1,0.5]];portConstraint=eastwest;labelBackgroundColor=none;fontColor=#1D3557;rounded=1;" parent="MEUtMW8uSptJMOQuRIBu-90" vertex="1">
          <mxGeometry y="107.55555555555556" width="230" height="36" as="geometry" />
        </mxCell>
        <mxCell id="MEUtMW8uSptJMOQuRIBu-94" style="line;strokeWidth=1;fillColor=none;align=left;verticalAlign=middle;spacingTop=-1;spacingLeft=3;spacingRight=3;rotatable=0;labelPosition=right;points=[];portConstraint=eastwest;strokeColor=#457B9D;labelBackgroundColor=none;fontColor=#1D3557;rounded=1;" parent="MEUtMW8uSptJMOQuRIBu-90" vertex="1">
          <mxGeometry y="143.55555555555554" width="230" height="18" as="geometry" />
        </mxCell>
        <mxCell id="MEUtMW8uSptJMOQuRIBu-95" value="AsistenciaDAO" style="swimlane;fontStyle=1;align=center;verticalAlign=top;childLayout=stackLayout;horizontal=1;startSize=34.54545454545455;horizontalStack=0;resizeParent=1;resizeParentMax=0;resizeLast=0;collapsible=0;marginBottom=0;labelBackgroundColor=none;fillColor=#A8DADC;strokeColor=#457B9D;fontColor=#1D3557;rounded=1;" parent="1" vertex="1">
          <mxGeometry x="3343" y="636" width="482" height="182.54545454545456" as="geometry" />
        </mxCell>
        <mxCell id="MEUtMW8uSptJMOQuRIBu-96" style="line;strokeWidth=1;fillColor=none;align=left;verticalAlign=middle;spacingTop=-1;spacingLeft=3;spacingRight=3;rotatable=0;labelPosition=right;points=[];portConstraint=eastwest;strokeColor=#457B9D;labelBackgroundColor=none;fontColor=#1D3557;rounded=1;" parent="MEUtMW8uSptJMOQuRIBu-95" vertex="1">
          <mxGeometry y="34.54545454545455" width="482" height="8" as="geometry" />
        </mxCell>
        <mxCell id="MEUtMW8uSptJMOQuRIBu-97" value="+boolean crear(String correo, String codigoActividad)" style="text;strokeColor=none;fillColor=none;align=left;verticalAlign=top;spacingLeft=4;spacingRight=4;overflow=hidden;rotatable=0;points=[[0,0.5],[1,0.5]];portConstraint=eastwest;labelBackgroundColor=none;fontColor=#1D3557;rounded=1;" parent="MEUtMW8uSptJMOQuRIBu-95" vertex="1">
          <mxGeometry y="42.54545454545455" width="482" height="35" as="geometry" />
        </mxCell>
        <mxCell id="MEUtMW8uSptJMOQuRIBu-98" value="+boolean existe(String correo, String codigoActividad)" style="text;strokeColor=none;fillColor=none;align=left;verticalAlign=top;spacingLeft=4;spacingRight=4;overflow=hidden;rotatable=0;points=[[0,0.5],[1,0.5]];portConstraint=eastwest;labelBackgroundColor=none;fontColor=#1D3557;rounded=1;" parent="MEUtMW8uSptJMOQuRIBu-95" vertex="1">
          <mxGeometry y="77.54545454545455" width="482" height="35" as="geometry" />
        </mxCell>
        <mxCell id="MEUtMW8uSptJMOQuRIBu-99" value="+int contarAsistentes(String codigoActividad)" style="text;strokeColor=none;fillColor=none;align=left;verticalAlign=top;spacingLeft=4;spacingRight=4;overflow=hidden;rotatable=0;points=[[0,0.5],[1,0.5]];portConstraint=eastwest;labelBackgroundColor=none;fontColor=#1D3557;rounded=1;" parent="MEUtMW8uSptJMOQuRIBu-95" vertex="1">
          <mxGeometry y="112.54545454545455" width="482" height="35" as="geometry" />
        </mxCell>
        <mxCell id="MEUtMW8uSptJMOQuRIBu-100" value="+boolean eliminar(String correo, String codigoActividad)" style="text;strokeColor=none;fillColor=none;align=left;verticalAlign=top;spacingLeft=4;spacingRight=4;overflow=hidden;rotatable=0;points=[[0,0.5],[1,0.5]];portConstraint=eastwest;labelBackgroundColor=none;fontColor=#1D3557;rounded=1;" parent="MEUtMW8uSptJMOQuRIBu-95" vertex="1">
          <mxGeometry y="147.54545454545456" width="482" height="35" as="geometry" />
        </mxCell>
        <mxCell id="MEUtMW8uSptJMOQuRIBu-101" value="AsistenciaService" style="swimlane;fontStyle=1;align=center;verticalAlign=top;childLayout=stackLayout;horizontal=1;startSize=47.2;horizontalStack=0;resizeParent=1;resizeParentMax=0;resizeLast=0;collapsible=0;marginBottom=0;labelBackgroundColor=none;fillColor=#A8DADC;strokeColor=#457B9D;fontColor=#1D3557;rounded=1;" parent="1" vertex="1">
          <mxGeometry x="3117" y="290" width="567" height="102.2" as="geometry" />
        </mxCell>
        <mxCell id="MEUtMW8uSptJMOQuRIBu-102" style="line;strokeWidth=1;fillColor=none;align=left;verticalAlign=middle;spacingTop=-1;spacingLeft=3;spacingRight=3;rotatable=0;labelPosition=right;points=[];portConstraint=eastwest;strokeColor=#457B9D;labelBackgroundColor=none;fontColor=#1D3557;rounded=1;" parent="MEUtMW8uSptJMOQuRIBu-101" vertex="1">
          <mxGeometry y="47.2" width="567" height="8" as="geometry" />
        </mxCell>
        <mxCell id="MEUtMW8uSptJMOQuRIBu-103" value="+boolean registrarAsistencia(String correo, String codigoActividad)" style="text;strokeColor=none;fillColor=none;align=left;verticalAlign=top;spacingLeft=4;spacingRight=4;overflow=hidden;rotatable=0;points=[[0,0.5],[1,0.5]];portConstraint=eastwest;labelBackgroundColor=none;fontColor=#1D3557;rounded=1;" parent="MEUtMW8uSptJMOQuRIBu-101" vertex="1">
          <mxGeometry y="55.2" width="567" height="47" as="geometry" />
        </mxCell>
        <mxCell id="MEUtMW8uSptJMOQuRIBu-104" value="CertificadoService" style="swimlane;fontStyle=1;align=center;verticalAlign=top;childLayout=stackLayout;horizontal=1;startSize=47.2;horizontalStack=0;resizeParent=1;resizeParentMax=0;resizeLast=0;collapsible=0;marginBottom=0;labelBackgroundColor=none;fillColor=#A8DADC;strokeColor=#457B9D;fontColor=#1D3557;rounded=1;" parent="1" vertex="1">
          <mxGeometry x="3875" y="672" width="433" height="102.2" as="geometry" />
        </mxCell>
        <mxCell id="MEUtMW8uSptJMOQuRIBu-105" style="line;strokeWidth=1;fillColor=none;align=left;verticalAlign=middle;spacingTop=-1;spacingLeft=3;spacingRight=3;rotatable=0;labelPosition=right;points=[];portConstraint=eastwest;strokeColor=#457B9D;labelBackgroundColor=none;fontColor=#1D3557;rounded=1;" parent="MEUtMW8uSptJMOQuRIBu-104" vertex="1">
          <mxGeometry y="47.2" width="433" height="8" as="geometry" />
        </mxCell>
        <mxCell id="MEUtMW8uSptJMOQuRIBu-106" value="+File emitir(String correo, String codigoEvento)" style="text;strokeColor=none;fillColor=none;align=left;verticalAlign=top;spacingLeft=4;spacingRight=4;overflow=hidden;rotatable=0;points=[[0,0.5],[1,0.5]];portConstraint=eastwest;labelBackgroundColor=none;fontColor=#1D3557;rounded=1;" parent="MEUtMW8uSptJMOQuRIBu-104" vertex="1">
          <mxGeometry y="55.2" width="433" height="47" as="geometry" />
        </mxCell>
        <mxCell id="MEUtMW8uSptJMOQuRIBu-107" value="ReporteService" style="swimlane;fontStyle=1;align=center;verticalAlign=top;childLayout=stackLayout;horizontal=1;startSize=36.888888888888886;horizontalStack=0;resizeParent=1;resizeParentMax=0;resizeLast=0;collapsible=0;marginBottom=0;labelBackgroundColor=none;fillColor=#A8DADC;strokeColor=#457B9D;fontColor=#1D3557;rounded=1;" parent="1" vertex="1">
          <mxGeometry x="4358" y="648" width="783" height="155.88888888888889" as="geometry" />
        </mxCell>
        <mxCell id="MEUtMW8uSptJMOQuRIBu-108" style="line;strokeWidth=1;fillColor=none;align=left;verticalAlign=middle;spacingTop=-1;spacingLeft=3;spacingRight=3;rotatable=0;labelPosition=right;points=[];portConstraint=eastwest;strokeColor=#457B9D;labelBackgroundColor=none;fontColor=#1D3557;rounded=1;" parent="MEUtMW8uSptJMOQuRIBu-107" vertex="1">
          <mxGeometry y="36.888888888888886" width="783" height="8" as="geometry" />
        </mxCell>
        <mxCell id="MEUtMW8uSptJMOQuRIBu-109" value="+File participantesPorEvento(String codigoEvento, String tipoParticipante, String institucionLike)" style="text;strokeColor=none;fillColor=none;align=left;verticalAlign=top;spacingLeft=4;spacingRight=4;overflow=hidden;rotatable=0;points=[[0,0.5],[1,0.5]];portConstraint=eastwest;labelBackgroundColor=none;fontColor=#1D3557;rounded=1;" parent="MEUtMW8uSptJMOQuRIBu-107" vertex="1">
          <mxGeometry y="44.888888888888886" width="783" height="37" as="geometry" />
        </mxCell>
        <mxCell id="MEUtMW8uSptJMOQuRIBu-110" value="+File actividadesPorEvento(String codigoEvento, String tipoActividad, String correoInstructorLike)" style="text;strokeColor=none;fillColor=none;align=left;verticalAlign=top;spacingLeft=4;spacingRight=4;overflow=hidden;rotatable=0;points=[[0,0.5],[1,0.5]];portConstraint=eastwest;labelBackgroundColor=none;fontColor=#1D3557;rounded=1;" parent="MEUtMW8uSptJMOQuRIBu-107" vertex="1">
          <mxGeometry y="81.88888888888889" width="783" height="37" as="geometry" />
        </mxCell>
        <mxCell id="MEUtMW8uSptJMOQuRIBu-111" value="+File pagosPorEvento(String codigoEvento)" style="text;strokeColor=none;fillColor=none;align=left;verticalAlign=top;spacingLeft=4;spacingRight=4;overflow=hidden;rotatable=0;points=[[0,0.5],[1,0.5]];portConstraint=eastwest;labelBackgroundColor=none;fontColor=#1D3557;rounded=1;" parent="MEUtMW8uSptJMOQuRIBu-107" vertex="1">
          <mxGeometry y="118.88888888888889" width="783" height="37" as="geometry" />
        </mxCell>
        <mxCell id="MEUtMW8uSptJMOQuRIBu-112" value="DBConnection" style="swimlane;fontStyle=1;align=center;verticalAlign=top;childLayout=stackLayout;horizontal=1;startSize=36.8;horizontalStack=0;resizeParent=1;resizeParentMax=0;resizeLast=0;collapsible=0;marginBottom=0;labelBackgroundColor=none;fillColor=#A8DADC;strokeColor=#457B9D;fontColor=#1D3557;rounded=1;" parent="1" vertex="1">
          <mxGeometry x="2683" y="944" width="215" height="192.8" as="geometry" />
        </mxCell>
        <mxCell id="MEUtMW8uSptJMOQuRIBu-113" value="+String URL" style="text;strokeColor=none;fillColor=none;align=left;verticalAlign=top;spacingLeft=4;spacingRight=4;overflow=hidden;rotatable=0;points=[[0,0.5],[1,0.5]];portConstraint=eastwest;labelBackgroundColor=none;fontColor=#1D3557;rounded=1;" parent="MEUtMW8uSptJMOQuRIBu-112" vertex="1">
          <mxGeometry y="36.8" width="215" height="37" as="geometry" />
        </mxCell>
        <mxCell id="MEUtMW8uSptJMOQuRIBu-114" value="+String USER_NAME" style="text;strokeColor=none;fillColor=none;align=left;verticalAlign=top;spacingLeft=4;spacingRight=4;overflow=hidden;rotatable=0;points=[[0,0.5],[1,0.5]];portConstraint=eastwest;labelBackgroundColor=none;fontColor=#1D3557;rounded=1;" parent="MEUtMW8uSptJMOQuRIBu-112" vertex="1">
          <mxGeometry y="73.8" width="215" height="37" as="geometry" />
        </mxCell>
        <mxCell id="MEUtMW8uSptJMOQuRIBu-115" value="+String PASSWORD" style="text;strokeColor=none;fillColor=none;align=left;verticalAlign=top;spacingLeft=4;spacingRight=4;overflow=hidden;rotatable=0;points=[[0,0.5],[1,0.5]];portConstraint=eastwest;labelBackgroundColor=none;fontColor=#1D3557;rounded=1;" parent="MEUtMW8uSptJMOQuRIBu-112" vertex="1">
          <mxGeometry y="110.8" width="215" height="37" as="geometry" />
        </mxCell>
        <mxCell id="MEUtMW8uSptJMOQuRIBu-116" style="line;strokeWidth=1;fillColor=none;align=left;verticalAlign=middle;spacingTop=-1;spacingLeft=3;spacingRight=3;rotatable=0;labelPosition=right;points=[];portConstraint=eastwest;strokeColor=#457B9D;labelBackgroundColor=none;fontColor=#1D3557;rounded=1;" parent="MEUtMW8uSptJMOQuRIBu-112" vertex="1">
          <mxGeometry y="147.8" width="215" height="8" as="geometry" />
        </mxCell>
        <mxCell id="MEUtMW8uSptJMOQuRIBu-117" value="+void connect()" style="text;strokeColor=none;fillColor=none;align=left;verticalAlign=top;spacingLeft=4;spacingRight=4;overflow=hidden;rotatable=0;points=[[0,0.5],[1,0.5]];portConstraint=eastwest;labelBackgroundColor=none;fontColor=#1D3557;rounded=1;" parent="MEUtMW8uSptJMOQuRIBu-112" vertex="1">
          <mxGeometry y="155.8" width="215" height="37" as="geometry" />
        </mxCell>
        <mxCell id="MEUtMW8uSptJMOQuRIBu-118" value="Configuracion" style="swimlane;fontStyle=1;align=center;verticalAlign=top;childLayout=stackLayout;horizontal=1;startSize=44.8;horizontalStack=0;resizeParent=1;resizeParentMax=0;resizeLast=0;collapsible=0;marginBottom=0;labelBackgroundColor=none;fillColor=#A8DADC;strokeColor=#457B9D;fontColor=#1D3557;rounded=1;" parent="1" vertex="1">
          <mxGeometry x="4730" y="980" width="224" height="111.8" as="geometry" />
        </mxCell>
        <mxCell id="MEUtMW8uSptJMOQuRIBu-119" value="+String RUTA_SALIDA" style="text;strokeColor=none;fillColor=none;align=left;verticalAlign=top;spacingLeft=4;spacingRight=4;overflow=hidden;rotatable=0;points=[[0,0.5],[1,0.5]];portConstraint=eastwest;labelBackgroundColor=none;fontColor=#1D3557;rounded=1;" parent="MEUtMW8uSptJMOQuRIBu-118" vertex="1">
          <mxGeometry y="44.8" width="224" height="45" as="geometry" />
        </mxCell>
        <mxCell id="MEUtMW8uSptJMOQuRIBu-120" style="line;strokeWidth=1;fillColor=none;align=left;verticalAlign=middle;spacingTop=-1;spacingLeft=3;spacingRight=3;rotatable=0;labelPosition=right;points=[];portConstraint=eastwest;strokeColor=#457B9D;labelBackgroundColor=none;fontColor=#1D3557;rounded=1;" parent="MEUtMW8uSptJMOQuRIBu-118" vertex="1">
          <mxGeometry y="89.8" width="224" height="22" as="geometry" />
        </mxCell>
        <mxCell id="MEUtMW8uSptJMOQuRIBu-121" value="HtmlUtil" style="swimlane;fontStyle=1;align=center;verticalAlign=top;childLayout=stackLayout;horizontal=1;startSize=40.57142857142857;horizontalStack=0;resizeParent=1;resizeParentMax=0;resizeLast=0;collapsible=0;marginBottom=0;labelBackgroundColor=none;fillColor=#A8DADC;strokeColor=#457B9D;fontColor=#1D3557;rounded=1;" parent="1" vertex="1">
          <mxGeometry x="3983" y="965" width="586" height="130.57142857142856" as="geometry" />
        </mxCell>
        <mxCell id="MEUtMW8uSptJMOQuRIBu-122" style="line;strokeWidth=1;fillColor=none;align=left;verticalAlign=middle;spacingTop=-1;spacingLeft=3;spacingRight=3;rotatable=0;labelPosition=right;points=[];portConstraint=eastwest;strokeColor=#457B9D;labelBackgroundColor=none;fontColor=#1D3557;rounded=1;" parent="MEUtMW8uSptJMOQuRIBu-121" vertex="1">
          <mxGeometry y="40.57142857142857" width="586" height="8" as="geometry" />
        </mxCell>
        <mxCell id="MEUtMW8uSptJMOQuRIBu-123" value="+String plantilla(String titulo, String cuerpo)" style="text;strokeColor=none;fillColor=none;align=left;verticalAlign=top;spacingLeft=4;spacingRight=4;overflow=hidden;rotatable=0;points=[[0,0.5],[1,0.5]];portConstraint=eastwest;labelBackgroundColor=none;fontColor=#1D3557;rounded=1;" parent="MEUtMW8uSptJMOQuRIBu-121" vertex="1">
          <mxGeometry y="48.57142857142857" width="586" height="41" as="geometry" />
        </mxCell>
        <mxCell id="MEUtMW8uSptJMOQuRIBu-124" value="+File escribir(String rutaCarpeta, String nombreArchivo, String contenido)" style="text;strokeColor=none;fillColor=none;align=left;verticalAlign=top;spacingLeft=4;spacingRight=4;overflow=hidden;rotatable=0;points=[[0,0.5],[1,0.5]];portConstraint=eastwest;labelBackgroundColor=none;fontColor=#1D3557;rounded=1;" parent="MEUtMW8uSptJMOQuRIBu-121" vertex="1">
          <mxGeometry y="89.57142857142857" width="586" height="41" as="geometry" />
        </mxCell>
        <mxCell id="MEUtMW8uSptJMOQuRIBu-154" value="" style="endArrow=classic;html=1;rounded=1;exitX=0.5;exitY=1;exitDx=0;exitDy=0;entryX=0.5;entryY=0;entryDx=0;entryDy=0;labelBackgroundColor=none;strokeColor=#457B9D;fontColor=default;" parent="1" source="MEUtMW8uSptJMOQuRIBu-1" target="MEUtMW8uSptJMOQuRIBu-10" edge="1">
          <mxGeometry width="50" height="50" relative="1" as="geometry">
            <mxPoint x="100" y="960" as="sourcePoint" />
            <mxPoint x="150" y="910" as="targetPoint" />
          </mxGeometry>
        </mxCell>
        <mxCell id="MEUtMW8uSptJMOQuRIBu-155" value="" style="endArrow=classic;html=1;rounded=1;exitX=0.5;exitY=1;exitDx=0;exitDy=0;entryX=0.5;entryY=0;entryDx=0;entryDy=0;edgeStyle=orthogonalEdgeStyle;labelBackgroundColor=none;strokeColor=#457B9D;fontColor=default;" parent="1" source="MEUtMW8uSptJMOQuRIBu-17" target="MEUtMW8uSptJMOQuRIBu-23" edge="1">
          <mxGeometry width="50" height="50" relative="1" as="geometry">
            <mxPoint x="280" y="930" as="sourcePoint" />
            <mxPoint x="280" y="1049" as="targetPoint" />
            <Array as="points">
              <mxPoint x="536" y="580" />
              <mxPoint x="695" y="580" />
            </Array>
          </mxGeometry>
        </mxCell>
        <mxCell id="MEUtMW8uSptJMOQuRIBu-156" value="" style="endArrow=classic;html=1;rounded=1;exitX=0;exitY=0.5;exitDx=0;exitDy=0;entryX=0.75;entryY=0;entryDx=0;entryDy=0;edgeStyle=orthogonalEdgeStyle;labelBackgroundColor=none;strokeColor=#457B9D;fontColor=default;" parent="1" source="MEUtMW8uSptJMOQuRIBu-51" target="MEUtMW8uSptJMOQuRIBu-10" edge="1">
          <mxGeometry width="50" height="50" relative="1" as="geometry">
            <mxPoint x="980" y="720" as="sourcePoint" />
            <mxPoint x="980" y="839" as="targetPoint" />
            <Array as="points">
              <mxPoint x="992" y="406" />
              <mxPoint x="992" y="540" />
              <mxPoint x="245" y="540" />
            </Array>
          </mxGeometry>
        </mxCell>
        <mxCell id="MEUtMW8uSptJMOQuRIBu-157" value="" style="endArrow=classic;html=1;rounded=1;exitX=1;exitY=0.5;exitDx=0;exitDy=0;entryX=0.25;entryY=0;entryDx=0;entryDy=0;edgeStyle=orthogonalEdgeStyle;labelBackgroundColor=none;strokeColor=#457B9D;fontColor=default;" parent="1" source="MEUtMW8uSptJMOQuRIBu-34" target="MEUtMW8uSptJMOQuRIBu-38" edge="1">
          <mxGeometry width="50" height="50" relative="1" as="geometry">
            <mxPoint x="1130" y="670" as="sourcePoint" />
            <mxPoint x="1130" y="789" as="targetPoint" />
            <Array as="points">
              <mxPoint x="1040" y="350" />
              <mxPoint x="1040" y="510" />
              <mxPoint x="1379" y="510" />
            </Array>
          </mxGeometry>
        </mxCell>
        <mxCell id="MEUtMW8uSptJMOQuRIBu-158" value="" style="endArrow=classic;html=1;rounded=1;exitX=0;exitY=0.5;exitDx=0;exitDy=0;entryX=0.5;entryY=0;entryDx=0;entryDy=0;edgeStyle=orthogonalEdgeStyle;labelBackgroundColor=none;strokeColor=#457B9D;fontColor=default;" parent="1" source="MEUtMW8uSptJMOQuRIBu-65" target="MEUtMW8uSptJMOQuRIBu-49" edge="1">
          <mxGeometry width="50" height="50" relative="1" as="geometry">
            <mxPoint x="1340" y="240" as="sourcePoint" />
            <mxPoint x="1340" y="359" as="targetPoint" />
            <Array as="points">
              <mxPoint x="1130" y="120" />
              <mxPoint x="1130" y="236" />
              <mxPoint x="1353" y="236" />
            </Array>
          </mxGeometry>
        </mxCell>
        <mxCell id="MEUtMW8uSptJMOQuRIBu-159" value="" style="endArrow=classic;html=1;rounded=1;exitX=1;exitY=0.5;exitDx=0;exitDy=0;entryX=0.5;entryY=0;entryDx=0;entryDy=0;edgeStyle=orthogonalEdgeStyle;labelBackgroundColor=none;strokeColor=#457B9D;fontColor=default;" parent="1" source="MEUtMW8uSptJMOQuRIBu-51" target="MEUtMW8uSptJMOQuRIBu-38" edge="1">
          <mxGeometry width="50" height="50" relative="1" as="geometry">
            <mxPoint x="1530" y="570" as="sourcePoint" />
            <mxPoint x="1530" y="689" as="targetPoint" />
            <Array as="points">
              <mxPoint x="1670" y="406" />
              <mxPoint x="1670" y="503" />
              <mxPoint x="1537" y="503" />
            </Array>
          </mxGeometry>
        </mxCell>
        <mxCell id="MEUtMW8uSptJMOQuRIBu-161" value="" style="endArrow=classic;html=1;rounded=1;exitX=0.506;exitY=1.003;exitDx=0;exitDy=0;entryX=0.75;entryY=0;entryDx=0;entryDy=0;exitPerimeter=0;edgeStyle=orthogonalEdgeStyle;labelBackgroundColor=none;strokeColor=#457B9D;fontColor=default;" parent="1" source="MEUtMW8uSptJMOQuRIBu-65" target="MEUtMW8uSptJMOQuRIBu-38" edge="1">
          <mxGeometry width="50" height="50" relative="1" as="geometry">
            <mxPoint x="1730" y="350" as="sourcePoint" />
            <mxPoint x="1730" y="469" as="targetPoint" />
            <Array as="points">
              <mxPoint x="1577" y="180" />
              <mxPoint x="1694" y="180" />
            </Array>
          </mxGeometry>
        </mxCell>
        <mxCell id="MEUtMW8uSptJMOQuRIBu-164" value="" style="endArrow=classic;html=1;rounded=1;exitX=1;exitY=0.25;exitDx=0;exitDy=0;entryX=0.25;entryY=0;entryDx=0;entryDy=0;edgeStyle=orthogonalEdgeStyle;labelBackgroundColor=none;strokeColor=#457B9D;fontColor=default;" parent="1" source="MEUtMW8uSptJMOQuRIBu-49" target="MEUtMW8uSptJMOQuRIBu-52" edge="1">
          <mxGeometry width="50" height="50" relative="1" as="geometry">
            <mxPoint x="1750" y="450" as="sourcePoint" />
            <mxPoint x="1750" y="569" as="targetPoint" />
            <Array as="points">
              <mxPoint x="1780" y="353" />
              <mxPoint x="1780" y="500" />
              <mxPoint x="2058" y="500" />
            </Array>
          </mxGeometry>
        </mxCell>
        <mxCell id="MEUtMW8uSptJMOQuRIBu-165" value="" style="endArrow=classic;html=1;rounded=1;exitX=0;exitY=0.5;exitDx=0;exitDy=0;entryX=0.87;entryY=0.002;entryDx=0;entryDy=0;entryPerimeter=0;edgeStyle=orthogonalEdgeStyle;labelBackgroundColor=none;strokeColor=#457B9D;fontColor=default;" parent="1" source="MEUtMW8uSptJMOQuRIBu-89" target="MEUtMW8uSptJMOQuRIBu-38" edge="1">
          <mxGeometry width="50" height="50" relative="1" as="geometry">
            <mxPoint x="2130" y="450" as="sourcePoint" />
            <mxPoint x="2130" y="569" as="targetPoint" />
            <Array as="points">
              <mxPoint x="2290" y="398" />
              <mxPoint x="2160" y="398" />
              <mxPoint x="2160" y="540" />
              <mxPoint x="1770" y="540" />
            </Array>
          </mxGeometry>
        </mxCell>
        <mxCell id="MEUtMW8uSptJMOQuRIBu-166" value="" style="endArrow=classic;html=1;rounded=1;exitX=1;exitY=0.5;exitDx=0;exitDy=0;entryX=0.5;entryY=0;entryDx=0;entryDy=0;edgeStyle=orthogonalEdgeStyle;labelBackgroundColor=none;strokeColor=#457B9D;fontColor=default;" parent="1" source="MEUtMW8uSptJMOQuRIBu-59" target="MEUtMW8uSptJMOQuRIBu-52" edge="1">
          <mxGeometry width="50" height="50" relative="1" as="geometry">
            <mxPoint x="2160" y="640" as="sourcePoint" />
            <mxPoint x="2160" y="759" as="targetPoint" />
            <Array as="points">
              <mxPoint x="2100" y="318" />
              <mxPoint x="2100" y="670" />
              <mxPoint x="2160" y="670" />
            </Array>
          </mxGeometry>
        </mxCell>
        <mxCell id="MEUtMW8uSptJMOQuRIBu-167" value="" style="endArrow=classic;html=1;rounded=1;exitX=0.5;exitY=1;exitDx=0;exitDy=0;entryX=0.25;entryY=0;entryDx=0;entryDy=0;edgeStyle=orthogonalEdgeStyle;labelBackgroundColor=none;strokeColor=#457B9D;fontColor=default;" parent="1" source="MEUtMW8uSptJMOQuRIBu-71" target="MEUtMW8uSptJMOQuRIBu-81" edge="1">
          <mxGeometry width="50" height="50" relative="1" as="geometry">
            <mxPoint x="2860" y="580" as="sourcePoint" />
            <mxPoint x="2843" y="630" as="targetPoint" />
          </mxGeometry>
        </mxCell>
        <mxCell id="MEUtMW8uSptJMOQuRIBu-169" value="" style="endArrow=classic;html=1;rounded=1;exitX=0.186;exitY=1.008;exitDx=0;exitDy=0;entryX=0.75;entryY=0;entryDx=0;entryDy=0;exitPerimeter=0;edgeStyle=orthogonalEdgeStyle;labelBackgroundColor=none;strokeColor=#457B9D;fontColor=default;" parent="1" source="MEUtMW8uSptJMOQuRIBu-103" target="MEUtMW8uSptJMOQuRIBu-81" edge="1">
          <mxGeometry width="50" height="50" relative="1" as="geometry">
            <mxPoint x="3150" y="520" as="sourcePoint" />
            <mxPoint x="3150" y="639" as="targetPoint" />
          </mxGeometry>
        </mxCell>
        <mxCell id="MEUtMW8uSptJMOQuRIBu-170" value="" style="endArrow=classic;html=1;rounded=1;exitX=0.5;exitY=1;exitDx=0;exitDy=0;entryX=0.75;entryY=0;entryDx=0;entryDy=0;edgeStyle=orthogonalEdgeStyle;labelBackgroundColor=none;strokeColor=#457B9D;fontColor=default;" parent="1" source="MEUtMW8uSptJMOQuRIBu-90" target="MEUtMW8uSptJMOQuRIBu-95" edge="1">
          <mxGeometry width="50" height="50" relative="1" as="geometry">
            <mxPoint x="3750" y="560" as="sourcePoint" />
            <mxPoint x="3750" y="679" as="targetPoint" />
          </mxGeometry>
        </mxCell>
        <mxCell id="MEUtMW8uSptJMOQuRIBu-171" value="" style="endArrow=classic;html=1;rounded=1;entryX=0.5;entryY=0;entryDx=0;entryDy=0;edgeStyle=orthogonalEdgeStyle;exitX=0.57;exitY=1.005;exitDx=0;exitDy=0;exitPerimeter=0;labelBackgroundColor=none;strokeColor=#457B9D;fontColor=default;" parent="1" source="MEUtMW8uSptJMOQuRIBu-103" target="MEUtMW8uSptJMOQuRIBu-95" edge="1">
          <mxGeometry width="50" height="50" relative="1" as="geometry">
            <mxPoint x="3440" y="421" as="sourcePoint" />
            <mxPoint x="3590" y="619" as="targetPoint" />
          </mxGeometry>
        </mxCell>
        <mxCell id="MEUtMW8uSptJMOQuRIBu-172" value="" style="endArrow=classic;html=1;rounded=1;exitX=1;exitY=0.5;exitDx=0;exitDy=0;entryX=0.75;entryY=0;entryDx=0;entryDy=0;edgeStyle=orthogonalEdgeStyle;labelBackgroundColor=none;strokeColor=#457B9D;fontColor=default;" parent="1" source="MEUtMW8uSptJMOQuRIBu-63" target="MEUtMW8uSptJMOQuRIBu-52" edge="1">
          <mxGeometry width="50" height="50" relative="1" as="geometry">
            <mxPoint x="2430" y="590" as="sourcePoint" />
            <mxPoint x="2430" y="709" as="targetPoint" />
            <Array as="points">
              <mxPoint x="2230" y="92" />
              <mxPoint x="2230" y="640" />
              <mxPoint x="2262" y="640" />
            </Array>
          </mxGeometry>
        </mxCell>
        <mxCell id="MEUtMW8uSptJMOQuRIBu-174" value="" style="endArrow=classic;html=1;rounded=1;exitX=0;exitY=0.5;exitDx=0;exitDy=0;entryX=1;entryY=0.5;entryDx=0;entryDy=0;edgeStyle=orthogonalEdgeStyle;labelBackgroundColor=none;strokeColor=#457B9D;fontColor=default;" parent="1" source="MEUtMW8uSptJMOQuRIBu-103" target="MEUtMW8uSptJMOQuRIBu-41" edge="1">
          <mxGeometry width="50" height="50" relative="1" as="geometry">
            <mxPoint x="2500" y="610" as="sourcePoint" />
            <mxPoint x="2500" y="729" as="targetPoint" />
            <Array as="points">
              <mxPoint x="3030" y="369" />
              <mxPoint x="3030" y="570" />
              <mxPoint x="2485" y="570" />
              <mxPoint x="2485" y="610" />
              <mxPoint x="1910" y="610" />
              <mxPoint x="1910" y="659" />
            </Array>
          </mxGeometry>
        </mxCell>
        <mxCell id="MEUtMW8uSptJMOQuRIBu-175" value="" style="endArrow=classic;html=1;rounded=1;exitX=1;exitY=0.5;exitDx=0;exitDy=0;entryX=0.411;entryY=0.001;entryDx=0;entryDy=0;entryPerimeter=0;edgeStyle=orthogonalEdgeStyle;labelBackgroundColor=none;strokeColor=#457B9D;fontColor=default;" parent="1" source="MEUtMW8uSptJMOQuRIBu-87" target="MEUtMW8uSptJMOQuRIBu-81" edge="1">
          <mxGeometry width="50" height="50" relative="1" as="geometry">
            <mxPoint x="2810" y="440" as="sourcePoint" />
            <mxPoint x="2900" y="640" as="targetPoint" />
          </mxGeometry>
        </mxCell>
        <mxCell id="MEUtMW8uSptJMOQuRIBu-176" value="" style="endArrow=classic;html=1;rounded=1;exitX=0.64;exitY=0.998;exitDx=0;exitDy=0;exitPerimeter=0;labelBackgroundColor=none;strokeColor=#457B9D;fontColor=default;" parent="1" source="MEUtMW8uSptJMOQuRIBu-111" edge="1">
          <mxGeometry width="50" height="50" relative="1" as="geometry">
            <mxPoint x="4860" y="880" as="sourcePoint" />
            <mxPoint x="4860" y="980" as="targetPoint" />
          </mxGeometry>
        </mxCell>
        <mxCell id="MEUtMW8uSptJMOQuRIBu-177" value="" style="endArrow=classic;html=1;rounded=1;exitX=0.393;exitY=0.996;exitDx=0;exitDy=0;entryX=1;entryY=0.25;entryDx=0;entryDy=0;exitPerimeter=0;edgeStyle=orthogonalEdgeStyle;labelBackgroundColor=none;strokeColor=#457B9D;fontColor=default;" parent="1" source="MEUtMW8uSptJMOQuRIBu-111" target="MEUtMW8uSptJMOQuRIBu-121" edge="1">
          <mxGeometry width="50" height="50" relative="1" as="geometry">
            <mxPoint x="4680" y="870" as="sourcePoint" />
            <mxPoint x="4680" y="989" as="targetPoint" />
          </mxGeometry>
        </mxCell>
        <mxCell id="MEUtMW8uSptJMOQuRIBu-178" value="" style="endArrow=classic;html=1;rounded=1;exitX=0.857;exitY=1;exitDx=0;exitDy=0;entryX=0.25;entryY=0;entryDx=0;entryDy=0;exitPerimeter=0;edgeStyle=orthogonalEdgeStyle;labelBackgroundColor=none;strokeColor=#457B9D;fontColor=default;" parent="1" source="MEUtMW8uSptJMOQuRIBu-106" target="MEUtMW8uSptJMOQuRIBu-118" edge="1">
          <mxGeometry width="50" height="50" relative="1" as="geometry">
            <mxPoint x="4600" y="920" as="sourcePoint" />
            <mxPoint x="4600" y="1039" as="targetPoint" />
          </mxGeometry>
        </mxCell>
        <mxCell id="MEUtMW8uSptJMOQuRIBu-179" value="" style="endArrow=classic;html=1;rounded=1;exitX=1;exitY=0.5;exitDx=0;exitDy=0;entryX=0;entryY=0.5;entryDx=0;entryDy=0;edgeStyle=orthogonalEdgeStyle;labelBackgroundColor=none;strokeColor=#457B9D;fontColor=default;" parent="1" source="MEUtMW8uSptJMOQuRIBu-54" target="MEUtMW8uSptJMOQuRIBu-68" edge="1">
          <mxGeometry width="50" height="50" relative="1" as="geometry">
            <mxPoint x="2550" y="950" as="sourcePoint" />
            <mxPoint x="2600" y="900" as="targetPoint" />
          </mxGeometry>
        </mxCell>
        <mxCell id="MEUtMW8uSptJMOQuRIBu-180" value="" style="endArrow=classic;html=1;rounded=1;entryX=0.166;entryY=0.004;entryDx=0;entryDy=0;entryPerimeter=0;exitX=0.472;exitY=1.005;exitDx=0;exitDy=0;exitPerimeter=0;labelBackgroundColor=none;strokeColor=#457B9D;fontColor=default;" parent="1" source="MEUtMW8uSptJMOQuRIBu-106" target="MEUtMW8uSptJMOQuRIBu-121" edge="1">
          <mxGeometry width="50" height="50" relative="1" as="geometry">
            <mxPoint x="4079" y="780" as="sourcePoint" />
            <mxPoint x="3990" y="979" as="targetPoint" />
          </mxGeometry>
        </mxCell>
        <mxCell id="MEUtMW8uSptJMOQuRIBu-181" value="" style="endArrow=classic;html=1;rounded=1;exitX=0.112;exitY=1;exitDx=0;exitDy=0;exitPerimeter=0;entryX=1;entryY=0.5;entryDx=0;entryDy=0;edgeStyle=orthogonalEdgeStyle;labelBackgroundColor=none;strokeColor=#457B9D;fontColor=default;" parent="1" source="MEUtMW8uSptJMOQuRIBu-111" target="MEUtMW8uSptJMOQuRIBu-117" edge="1">
          <mxGeometry width="50" height="50" relative="1" as="geometry">
            <mxPoint x="4000" y="890" as="sourcePoint" />
            <mxPoint x="3300" y="1009" as="targetPoint" />
            <Array as="points">
              <mxPoint x="4446" y="920" />
              <mxPoint x="3880" y="920" />
              <mxPoint x="3880" y="1118" />
            </Array>
          </mxGeometry>
        </mxCell>
        <mxCell id="MEUtMW8uSptJMOQuRIBu-182" value="" style="endArrow=classic;html=1;rounded=1;exitX=0.243;exitY=1.003;exitDx=0;exitDy=0;entryX=1;entryY=0.5;entryDx=0;entryDy=0;exitPerimeter=0;edgeStyle=orthogonalEdgeStyle;labelBackgroundColor=none;strokeColor=#457B9D;fontColor=default;" parent="1" source="MEUtMW8uSptJMOQuRIBu-106" target="MEUtMW8uSptJMOQuRIBu-115" edge="1">
          <mxGeometry width="50" height="50" relative="1" as="geometry">
            <mxPoint x="3650" y="900" as="sourcePoint" />
            <mxPoint x="3650" y="1019" as="targetPoint" />
            <Array as="points">
              <mxPoint x="3980" y="880" />
              <mxPoint x="3840" y="880" />
              <mxPoint x="3840" y="1073" />
            </Array>
          </mxGeometry>
        </mxCell>
        <mxCell id="MEUtMW8uSptJMOQuRIBu-183" value="" style="endArrow=classic;html=1;rounded=1;exitX=0.474;exitY=1.014;exitDx=0;exitDy=0;entryX=1;entryY=0.5;entryDx=0;entryDy=0;exitPerimeter=0;edgeStyle=orthogonalEdgeStyle;labelBackgroundColor=none;strokeColor=#457B9D;fontColor=default;" parent="1" source="MEUtMW8uSptJMOQuRIBu-100" target="MEUtMW8uSptJMOQuRIBu-114" edge="1">
          <mxGeometry width="50" height="50" relative="1" as="geometry">
            <mxPoint x="3520" y="880" as="sourcePoint" />
            <mxPoint x="3520" y="999" as="targetPoint" />
            <Array as="points">
              <mxPoint x="3572" y="950" />
              <mxPoint x="3572" y="950" />
              <mxPoint x="3572" y="1036" />
            </Array>
          </mxGeometry>
        </mxCell>
        <mxCell id="MEUtMW8uSptJMOQuRIBu-184" value="" style="endArrow=classic;html=1;rounded=1;exitX=0.506;exitY=0.999;exitDx=0;exitDy=0;entryX=1;entryY=0.5;entryDx=0;entryDy=0;exitPerimeter=0;edgeStyle=orthogonalEdgeStyle;labelBackgroundColor=none;strokeColor=#457B9D;fontColor=default;" parent="1" source="MEUtMW8uSptJMOQuRIBu-86" target="MEUtMW8uSptJMOQuRIBu-113" edge="1">
          <mxGeometry width="50" height="50" relative="1" as="geometry">
            <mxPoint x="2960" y="880" as="sourcePoint" />
            <mxPoint x="2960" y="999" as="targetPoint" />
          </mxGeometry>
        </mxCell>
        <mxCell id="MEUtMW8uSptJMOQuRIBu-185" value="" style="endArrow=classic;html=1;rounded=1;exitX=0.552;exitY=1.001;exitDx=0;exitDy=0;entryX=0;entryY=0.5;entryDx=0;entryDy=0;exitPerimeter=0;edgeStyle=orthogonalEdgeStyle;labelBackgroundColor=none;strokeColor=#457B9D;fontColor=default;" parent="1" source="MEUtMW8uSptJMOQuRIBu-55" target="MEUtMW8uSptJMOQuRIBu-113" edge="1">
          <mxGeometry width="50" height="50" relative="1" as="geometry">
            <mxPoint x="2460" y="960" as="sourcePoint" />
            <mxPoint x="2460" y="1079" as="targetPoint" />
          </mxGeometry>
        </mxCell>
        <mxCell id="MEUtMW8uSptJMOQuRIBu-186" value="" style="endArrow=classic;html=1;rounded=1;exitX=0.465;exitY=0.995;exitDx=0;exitDy=0;exitPerimeter=0;entryX=0;entryY=0.5;entryDx=0;entryDy=0;edgeStyle=orthogonalEdgeStyle;labelBackgroundColor=none;strokeColor=#457B9D;fontColor=default;" parent="1" source="MEUtMW8uSptJMOQuRIBu-16" target="MEUtMW8uSptJMOQuRIBu-117" edge="1">
          <mxGeometry width="50" height="50" relative="1" as="geometry">
            <mxPoint x="410" y="890" as="sourcePoint" />
            <mxPoint x="1700" y="1110" as="targetPoint" />
            <Array as="points">
              <mxPoint x="160" y="1118" />
            </Array>
          </mxGeometry>
        </mxCell>
        <mxCell id="MEUtMW8uSptJMOQuRIBu-187" value="" style="endArrow=classic;html=1;rounded=1;exitX=0.47;exitY=1.002;exitDx=0;exitDy=0;entryX=0;entryY=0.5;entryDx=0;entryDy=0;exitPerimeter=0;edgeStyle=orthogonalEdgeStyle;labelBackgroundColor=none;strokeColor=#457B9D;fontColor=default;" parent="1" source="MEUtMW8uSptJMOQuRIBu-30" target="MEUtMW8uSptJMOQuRIBu-115" edge="1">
          <mxGeometry width="50" height="50" relative="1" as="geometry">
            <mxPoint x="930" y="910" as="sourcePoint" />
            <mxPoint x="930" y="1029" as="targetPoint" />
          </mxGeometry>
        </mxCell>
        <mxCell id="MEUtMW8uSptJMOQuRIBu-188" value="" style="endArrow=classic;html=1;rounded=1;entryX=0;entryY=0.5;entryDx=0;entryDy=0;exitX=0.477;exitY=1.003;exitDx=0;exitDy=0;exitPerimeter=0;edgeStyle=orthogonalEdgeStyle;labelBackgroundColor=none;strokeColor=#457B9D;fontColor=default;" parent="1" source="MEUtMW8uSptJMOQuRIBu-48" target="MEUtMW8uSptJMOQuRIBu-114" edge="1">
          <mxGeometry width="50" height="50" relative="1" as="geometry">
            <mxPoint x="1521" y="883" as="sourcePoint" />
            <mxPoint x="1830" y="1059" as="targetPoint" />
          </mxGeometry>
        </mxCell>
      </root>
    </mxGraphModel>
  </diagram>
</mxfile>
